<?xml version="1.0" standalone="no"?>
<!DOCTYPE svg PUBLIC "-//W3C//DTD SVG 20010904//EN"
 "http://www.w3.org/TR/2001/REC-SVG-20010904/DTD/svg10.dtd">
<svg version="1.0" xmlns="http://www.w3.org/2000/svg"
 width="486.000000pt" height="486.000000pt" viewBox="0 0 486.000000 486.000000"
 preserveAspectRatio="xMidYMid meet">
<metadata>
Created by potrace 1.11, written by Peter Selinger 2001-2013
</metadata>
<g transform="translate(0.000000,486.000000) scale(0.100000,-0.100000)"
fill="#000000" stroke="none">
<path d="M2315 4835 c-93 -23 -167 -47 -765 -245 -195 -64 -537 -177 -760
-250 -223 -73 -479 -157 -570 -187 -91 -30 -170 -59 -177 -65 -10 -8 -13 -104
-13 -424 l0 -414 90 0 90 0 0 304 0 304 103 32 c56 18 154 49 217 70 63 20
203 66 310 100 107 34 247 79 310 100 63 21 203 66 310 100 107 35 260 84 340
110 80 26 219 71 310 100 91 29 192 61 224 72 87 30 53 36 386 -72 63 -21 189
-61 280 -90 91 -29 217 -69 280 -90 63 -21 189 -61 280 -90 91 -29 217 -69
280 -90 63 -21 189 -61 280 -90 91 -29 217 -70 280 -90 63 -21 148 -48 188
-60 l72 -22 0 -309 0 -309 90 0 90 0 0 423 0 424 -582 193 c-321 106 -718 238
-883 292 -165 54 -309 103 -320 107 -56 24 -498 161 -550 170 -33 6 -69 13
-80 15 -11 2 -60 -6 -110 -19z"/>
<path d="M497 3500 c-37 -38 -96 -88 -132 -111 -35 -22 -66 -46 -68 -53 -3 -7
8 -27 23 -46 l29 -35 30 18 30 18 3 -128 3 -128 39 -2 c22 0 49 5 60 11 24 15
581 16 605 2 19 -12 74 -16 86 -6 8 7 13 261 6 327 -1 9 -36 13 -122 15 l-120
3 23 24 c23 26 29 54 15 84 -7 15 -26 17 -189 17 -172 0 -180 1 -166 18 25 28
11 42 -40 42 -45 0 -50 -3 -115 -70z m352 -79 c11 -1 10 -6 -4 -21 -17 -18
-31 -20 -173 -20 -154 0 -156 0 -135 19 11 11 31 21 44 23 20 2 216 2 268 -1z
m-89 -143 c0 -16 -12 -18 -125 -18 -98 0 -125 3 -125 13 0 8 2 16 4 18 2 2 59
4 125 4 109 0 121 -1 121 -17z m351 13 c3 0 6 -8 6 -16 0 -13 -21 -15 -128
-15 -116 0 -127 2 -124 18 2 9 4 17 4 17 3 1 237 -3 242 -4z m-349 -133 c-4
-16 -16 -18 -128 -18 -114 0 -124 1 -124 19 0 17 10 18 129 18 119 0 128 -2
123 -19z m350 9 c14 -23 -7 -27 -128 -27 -113 0 -124 2 -124 18 0 16 11 18
123 19 77 0 124 -3 129 -10z"/>
<path d="M2883 3549 c-18 -12 -33 -27 -33 -34 0 -7 22 -45 48 -86 27 -41 51
-79 54 -84 4 -7 -32 -10 -103 -10 -60 0 -109 2 -109 5 0 3 9 11 20 18 11 7 20
17 20 23 0 12 -86 123 -117 151 -18 17 -21 16 -56 -8 -20 -13 -37 -29 -37 -35
0 -5 23 -40 50 -76 28 -36 50 -69 50 -73 0 -3 -39 -6 -86 -5 -61 1 -88 -3 -91
-11 -3 -7 -5 -59 -6 -115 -2 -114 2 -121 72 -110 l36 6 1 60 1 60 371 3 372 2
0 -59 c0 -33 4 -63 10 -66 15 -9 78 -12 91 -4 11 7 17 209 6 226 -3 5 -49 8
-101 8 -53 -1 -96 2 -96 5 0 3 20 26 45 53 25 26 52 58 60 71 15 23 14 25 -22
55 -21 17 -43 31 -49 31 -12 0 -104 -108 -134 -157 -14 -22 -13 -25 4 -39 24
-17 29 -16 -76 -18 -69 -1 -85 1 -77 11 6 7 19 15 29 18 10 3 20 12 23 19 6
16 -104 180 -123 183 -8 2 -30 -6 -47 -18z"/>
<path d="M4043 3546 c-18 -11 -35 -26 -37 -33 -3 -6 18 -43 46 -83 27 -39 48
-73 46 -75 -2 -3 -29 -5 -60 -6 -31 -1 -61 -5 -66 -8 -6 -3 -9 -26 -8 -51 l1
-45 85 -2 c47 -1 93 -2 103 -2 15 -1 17 -12 17 -76 l0 -75 -32 -1 c-18 0 -66
0 -106 1 -44 1 -79 -3 -88 -11 -16 -13 -15 -25 -15 126 0 206 -4 185 36 185
19 0 36 3 36 8 5 35 5 73 -1 83 -10 15 -447 16 -462 1 -5 -5 -8 -27 -6 -48 3
-35 6 -39 34 -42 l31 -3 0 -299 c0 -164 -3 -299 -6 -298 -18 2 -48 -3 -59 -10
-10 -7 -10 -20 -1 -60 6 -29 13 -52 15 -52 3 0 40 7 82 16 42 9 86 18 97 20
83 17 95 17 96 -2 0 -11 1 -52 2 -93 2 -70 3 -75 27 -81 35 -9 75 3 75 22 0
30 13 30 36 -1 l22 -30 40 31 c88 70 172 178 197 254 11 33 30 47 30 21 0 -27
102 -166 165 -225 36 -34 70 -62 75 -62 5 0 26 21 47 46 l38 47 -35 25 c-99
73 -208 212 -235 300 -6 22 -6 22 119 22 122 0 126 1 131 23 3 12 4 36 2 52
l-2 30 -136 3 -137 3 1 74 c1 86 -14 78 139 76 96 -1 107 6 104 61 -3 40 -14
47 -88 50 l-67 3 50 75 c27 41 48 79 46 84 -5 14 -89 56 -100 49 -5 -3 -14
-17 -21 -32 -6 -14 -31 -61 -55 -103 l-43 -78 -51 0 -52 0 33 20 c17 11 32 23
32 26 0 10 -96 137 -117 156 -17 14 -21 14 -50 -6z m-221 -183 c2 -16 1 -43
-1 -60 -3 -33 -3 -33 -60 -33 l-57 0 -1 60 -1 60 58 0 c57 0 59 -1 62 -27z m1
-235 c-2 -84 3 -78 -62 -78 l-59 0 0 60 1 61 60 -3 60 -3 0 -37z m228 -148
c68 0 109 -4 109 -10 0 -24 -43 -135 -67 -173 -28 -47 -94 -118 -135 -148
l-28 -20 0 59 0 60 48 9 47 9 -3 44 c-2 25 -6 48 -10 52 -4 4 -24 3 -44 -1
-35 -8 -37 -7 -40 18 -4 35 4 129 9 114 3 -9 36 -13 114 -13z m-230 -45 c0 -8
1 -28 1 -45 0 -59 0 -59 -54 -66 -29 -4 -55 -7 -58 -6 -3 1 -6 31 -6 67 l-2
65 59 0 c45 0 59 -3 60 -15z"/>
<path d="M1517 3522 c-16 -3 -17 -22 -17 -222 0 -163 3 -221 12 -226 20 -12
82 -4 94 12 17 21 574 21 574 0 0 -19 15 -23 64 -16 l41 5 0 218 c0 139 -3
221 -10 225 -10 7 -725 10 -758 4z m644 -101 c10 -1 15 -11 15 -29 l0 -29
-283 0 -283 -1 0 28 c0 16 5 30 10 32 8 2 484 2 541 -1z m6 -160 c7 -1 11 -13
10 -28 l-2 -28 -283 -1 -282 -2 0 28 c0 16 5 30 10 32 8 2 506 2 547 -1z"/>
<path d="M2653 3148 c-13 -18 -14 -57 -2 -79 8 -17 26 -18 197 -18 103 0 196
0 207 0 12 -1 -8 -17 -52 -43 -58 -33 -73 -47 -73 -65 0 -27 23 -24 -250 -25
-107 0 -203 -2 -213 -5 -15 -4 -17 -13 -15 -51 l3 -47 238 -3 237 -2 1 -28 c2
-70 -3 -118 -15 -127 -8 -6 -47 -8 -95 -5 -45 3 -86 1 -90 -3 -10 -10 -2 -87
10 -103 11 -14 198 -11 235 5 53 22 66 52 68 160 l3 96 213 3 c156 2 216 6
222 15 12 19 9 74 -5 85 -8 7 -76 11 -182 11 -272 -1 -256 -8 -131 64 102 58
110 64 114 96 2 19 1 44 -2 57 l-6 24 -304 0 c-231 0 -306 -3 -313 -12z"/>
<path d="M1689 3065 c-93 -20 -196 -36 -236 -38 -10 0 -13 -38 -13 -155 0
-129 -3 -158 -16 -173 -15 -17 -14 -21 7 -56 38 -62 39 -62 89 -38 25 13 104
38 175 56 72 17 134 36 139 40 10 9 17 97 8 103 -4 2 -65 -11 -137 -30 -71
-19 -136 -34 -142 -34 -10 0 -13 25 -13 94 0 82 2 95 18 100 15 4 140 27 242
43 57 9 62 18 37 69 -12 26 -27 44 -36 43 -9 -1 -64 -12 -122 -24z"/>
<path d="M1884 3029 c-9 -15 -9 -483 0 -498 8 -12 74 -15 93 -3 8 5 12 65 12
207 l0 200 125 1 126 1 0 -91 c0 -50 -5 -98 -10 -106 -7 -12 -31 -15 -107 -15
l-98 0 1 -25 c3 -55 9 -80 19 -81 5 -1 54 -1 108 -1 80 1 104 4 130 21 56 35
62 56 62 235 l0 161 -227 3 c-160 2 -229 -1 -234 -9z"/>
<path d="M314 3017 c-17 -10 -19 -73 -1 -79 6 -3 235 -4 507 -4 l494 1 6 25
c9 34 1 60 -19 61 -101 5 -976 2 -987 -4z"/>
<path d="M433 2896 c-8 -12 -7 -351 0 -363 5 -8 50 -10 90 -4 4 1 7 10 7 20 0
18 11 19 282 17 181 0 283 -5 283 -11 1 -23 18 -34 49 -31 19 2 39 6 44 10 14
9 12 354 -2 364 -16 10 -747 9 -753 -2z m660 -98 c3 -10 2 -18 -1 -19 -10 -1
-523 -1 -544 0 -11 1 -18 9 -18 19 0 18 15 19 279 19 263 0 280 -1 284 -19z
m-2 -107 c3 0 6 -8 6 -16 0 -8 -3 -16 -6 -16 -3 -1 -129 -2 -280 -3 -222 -1
-274 1 -279 12 -3 8 0 17 6 21 8 5 529 7 553 2z"/>
<path d="M2665 1693 c-27 -18 -70 -41 -95 -50 -54 -21 -58 -25 -55 -71 2 -47
19 -51 85 -18 33 17 50 21 51 13 1 -7 2 -118 3 -247 l1 -235 50 0 50 0 0 314
c0 305 -1 314 -20 321 -14 4 -35 -4 -70 -27z"/>
<path d="M1607 1706 c-59 -22 -87 -53 -87 -97 0 -21 4 -41 10 -44 5 -3 27 8
49 25 99 80 228 29 199 -78 -15 -55 -33 -76 -116 -138 -120 -91 -146 -122
-159 -199 -17 -101 -30 -95 198 -95 l199 0 0 45 c0 52 18 47 -172 46 -65 0
-120 4 -123 9 -11 18 21 52 107 117 133 99 169 150 170 237 1 109 -62 175
-174 182 -40 3 -77 -1 -101 -10z"/>
<path d="M2122 1706 c-90 -32 -141 -137 -144 -293 -3 -216 57 -327 185 -340
98 -10 174 43 213 148 23 60 27 255 8 329 -37 138 -141 200 -262 156z m115
-91 c38 -27 56 -96 57 -218 1 -167 -32 -237 -110 -237 -84 0 -129 172 -93 354
20 97 86 143 146 101z"/>
<path d="M3180 1653 c-48 -86 -125 -199 -192 -281 -52 -64 -59 -78 -56 -110
l3 -37 133 -1 c73 -1 135 -3 137 -6 3 -3 7 -34 8 -69 l2 -64 45 0 45 0 3 68
c3 61 5 67 25 68 64 3 62 2 62 44 0 40 0 40 -42 43 l-43 3 -2 197 -3 197 -46
3 -47 3 -32 -58z m31 -300 l-3 -43 -74 0 c-41 0 -74 3 -74 8 0 4 10 18 23 32
12 14 45 60 72 102 l50 77 5 -67 c3 -37 3 -86 1 -109z"/>
<path d="M30 1177 l0 -403 28 -16 c16 -10 109 -44 208 -77 98 -34 352 -119
564 -191 212 -72 545 -184 740 -250 195 -66 434 -147 530 -180 l175 -59 128
-1 128 0 177 59 c97 32 359 118 582 191 223 73 565 186 760 250 195 64 436
143 535 175 99 32 197 67 217 78 l38 21 0 403 0 403 -90 0 -90 0 0 -297 0
-298 -78 -24 c-42 -13 -162 -52 -267 -86 -104 -34 -278 -90 -385 -125 -107
-34 -274 -89 -370 -120 -183 -60 -506 -164 -795 -258 -93 -30 -208 -67 -254
-83 l-85 -28 -140 46 c-78 25 -260 85 -406 133 -146 48 -407 133 -580 190
-173 57 -427 140 -565 185 -137 45 -312 102 -387 126 l-138 44 0 298 0 297
-90 0 -90 0 0 -403z"/>
</g>
</svg>
